<svg xmlns="http://www.w3.org/2000/svg" viewBox="0 0 2354.83 1015.42" cursor-pointer="" h-10="" data-v-ef0c8105=""><defs><style>.cls-1{fill:#36babb;}</style></defs><g id="Layer_2" data-name="Layer 2"><g id="Layer_1-2" data-name="Layer 1"><path class="cls-1" d="M2344.55,332.43c-9.61-44.86-29.81-86.7-55.19-124.66-19.4-29-42.6-55.19-66.08-80.92-20.49-22.44-41.9-44.63-58.8-70q-2.74-4.11-5.27-8.33c-4.7-7.85-15.05-10.83-22.79-6.22-9.33,5.55-14.77,21.87-16.78,31.33-3.59,16.85-4.58,34.88-1.69,51.89q1.68,8,3.35,16a70.2,70.2,0,0,0,11.13,23.87c13.49,22.52,31.26,42.27,48.83,61.64,20.39,22.46,41.18,44.59,60,68.42a434.08,434.08,0,0,1,27.93,39.44,301.73,301.73,0,0,1,18.61,38.33q3.4,10.21,6,20.66,1.18,6.84,2,13.74.33,6.67.32,13.36-.65,9.52-1.89,19c-2.19,11.77-5,23.41-8.33,34.9a517.07,517.07,0,0,1-32.42,75.69c-10.76,19.75-22.47,39-34.87,57.71-7.78,11.76-11.14,26.73-12.51,40.52-1.61,16.29-.75,36,4.23,51.74l4.93,13.5a38.09,38.09,0,0,0,13.38,17l7.86,2.21a19.25,19.25,0,0,0,14.59-9.54c39.73-60.1,73-125,90.72-195.1,8.52-33.73,12.09-68,13-102.67C2355.53,394.34,2351.14,363.18,2344.55,332.43Z"></path><path class="cls-1" d="M1986.24,615a159.3,159.3,0,0,0,35.24,32.43c7.3,4.9,15.2,8.77,24.08,9.94,8.34,1.09,17.85-2.57,24.54-7.43,7.82-5.67,13.74-13.6,20.33-20.67,23.2-23,47.93-44.46,69.35-69.22,12.79-14.79,23.19-31.06,29-49.85,13.59-43.79,6.53-93.33-22.17-129.51-15.3-19.29-35.63-33.92-54-50.17a135.28,135.28,0,0,1-17.51-20.14c-4-7.54-10.8-18.64-20.82-18.4s-17.26,12.47-20.28,20.21c-5.82,15-8.13,31.78-7.43,47.76.7,15.78,2.36,33.14,9.77,47.34,9.57,18.34,21.33,32.66,36.4,46.53,4.61,4.24,9.33,8.34,14.09,12.41-8.42,8.24-17,16.33-25.52,24.44-9.29,8.83-18.07,18.07-26.87,27.33a37.16,37.16,0,0,1-6.81,4.85,20.19,20.19,0,0,1-4.26.09c-7.29-3.12-14.05-8.24-20.11-13.49a144.17,144.17,0,0,1-18.82-23.35c-6.79-10.35-14.67-20.61-25.14-27.52a36.34,36.34,0,0,0-18.72-5.81c-6,0-12.84,2.84-18.17,4.85-8.24,3.09-13.62,10-17.66,17.61a82.29,82.29,0,0,0-7.37,20c-8.28,13-18.75,24.76-29,36-3.6,3.94-7.29,7.81-11,11.65a750.73,750.73,0,0,1-70.56,62.08c-27.44,21.29-56.36,40.94-87.11,57.14a341.48,341.48,0,0,1-45.86,20.29c-22.72,7.13-47.44,11.4-70.89,6.08a75.74,75.74,0,0,1-23-12.54,86.82,86.82,0,0,1-8.23-10q11.29-3.23,22.42-6.89c54.66-18,107.58-42.54,152.21-79.46,22-18.17,42.46-39.13,58.52-62.76a265.65,265.65,0,0,0,37.49-83.24c8.39-32.48,8.95-66,5.86-99.15-2.18-23.46-8.68-46.52-17.7-68.22a153.94,153.94,0,0,0-20.48-35.41,80.72,80.72,0,0,0-12.89-12.91,17.63,17.63,0,0,0-2-1.49,21.65,21.65,0,0,0-9.07-2.63c-3.61.06-7.65,1.39-11.18,2.14q-6.36,1.35-12.63,3c-9.78,2.61-19.44,5.79-28.95,9.26-55.85,20.33-102,61.6-135.81,109.78q-7.5,10.66-14.25,21.75c4.64-35.89,4.52-72.81-2.38-107.94-4.63-23.59-10.77-45.89-20.38-68-6.84-15.75-15.73-30.72-25.2-45-15.09-22.77-33.6-43-52.62-62.55C1461,53.83,1438.4,32.31,1418.21,8.52c-6-7-14-11.46-22.79-6.22-9.33,5.55-14.77,21.87-16.78,31.33-3.59,16.85-4.58,34.88-1.69,51.89,2.3,13.53,5.35,29.1,14.48,39.86,31.54,37.15,69.12,68.73,99.81,106.64a300.7,300.7,0,0,1,20.36,28.17,215.07,215.07,0,0,1,11.56,23.87q1.74,5.42,3.16,10.93.56,3.36,1,6.75c.09,2.32.15,4.64.16,7q-.48,6.51-1.31,13c-1.91,10.05-4.33,20-7.16,29.84-9,27.16-20.8,53.32-34,78.69q-2.19,4-4.4,8a99.4,99.4,0,0,0-12.51,40.52c-1.61,16.29-.75,36,4.23,51.74l4.93,13.5a40.15,40.15,0,0,0,2.4,4.93,439.28,439.28,0,0,1-68.2,2.14,855.8,855.8,0,0,0,26.85-91c2.81-11.8,5.29-23.67,7.79-35.55,3.85-18.28,6.44-36.32,6-55.08-.34-15.05-2.34-31.26-6.79-45.71-3.49-11.36-8.32-23.37-16-32.67-15.26-18.58-39.1-23-61.8-18.84-26.59,4.89-52.5,16.93-74.51,32.46-13.54,9.55-25.52,20.84-36.82,32.93-12,12.85-20.87,27.18-28.94,42.75-10.41,20.09-15.41,42.09-18.64,64.33a241.65,241.65,0,0,0-1.77,52.19c1.56,21.05,3.85,42.23,10.66,62.37,6,17.73,12.79,32.72,23,48.41A133.65,133.65,0,0,0,1261,631.82c-30.48,27.95-65.9,50-105,63.78a315.07,315.07,0,0,1-35.81,9.1c-10.7,2.07-16.21,10.69-20.28,20.21-6,14.07-8.09,32.7-7.43,47.76.7,15.76,2.34,33.17,9.77,47.34,3.72,7.1,11.11,21.14,21.24,19.18,63.77-12.31,121.74-42.74,167.51-88.78,22.12-22.26,41.93-46.11,58.89-72.56l.8-1.27q3.66.9,7.32,1.71c24.13,5.38,48.91,7.56,73.6,7.65a480.62,480.62,0,0,0,76.47-6l.15,1c5.48,35.19,15.48,69.47,35.17,99.42,10.44,15.87,26.17,30.15,44,37a116.64,116.64,0,0,0,56,6.93c21.67-2.56,42.92-9.67,63-17.89a416.9,416.9,0,0,0,59.4-30.65c39.33-24.06,76-52.69,109.84-83.92,16.69-15.39,32.85-31.48,48-48.37,9.8-10.92,19.39-22.27,27.28-34.68a144.2,144.2,0,0,0,11.22-21.39,19.49,19.49,0,0,1,2.54-.08,28.94,28.94,0,0,1,2.81,1.72C1974.55,597.09,1979.59,606.63,1986.24,615ZM1357,410.15a108.16,108.16,0,0,1,26-5q-1.29,4.94-2.6,9.84-2.92,10.92-6.17,21.76a630,630,0,0,1-39.8,96.76c-.68,1.24-1.37,2.49-2.07,3.73-18.14-6.61-35.41-15.67-50.16-28.17a115.61,115.61,0,0,1-14-16.86c-1-1.87-1.89-3.77-2.76-5.7q1.37-3.42,2.94-6.76A159.08,159.08,0,0,1,1288.81,453,195.92,195.92,0,0,1,1357,410.15ZM1608,488.88c14.48-26.21,31.75-50.89,52.36-72.64,27-26.5,59.09-47.21,94.84-59.83q8.16-2.55,16.46-4.56,5.46-1.32,11-2.4c.54-.11,1.16-.28,1.82-.46.73,1,1.43,2,2.11,3,1.51,2.86,2.89,5.78,4.18,8.74.14.47.29.94.42,1.4-.39,1.75-.82,3.49-1.27,5.23a190.27,190.27,0,0,1-8.16,19.12,245.67,245.67,0,0,1-34.29,45.81c-34.38,33.81-76.54,59.19-120.63,78.23q-17.31,7.47-35.15,13.66Q1599.08,506.21,1608,488.88Zm306.71,24.59c-.15,1.85-.27,3.7-.37,5.56l.14-4.06C1914.52,514.47,1914.6,514,1914.67,513.47Z"></path><path class="cls-1" d="M2236,828.34q-21.78-12.52-43.74-24.75c-13.76-7.67-27.76-17.2-42.83-22-10.48-3.35-18.26-4.56-28.66-1.08-6.82,2.29-12.07,4.86-17.27,9.88A95,95,0,0,0,2086,813c-1.09-.83-2.15-1.63-3.19-2.34l-17.69-12.11c-7.49-5.12-15.47-10-23-15.28a64.48,64.48,0,0,0-3.59-8.4c-3.94-7.49-10.83-20.51-21.25-19.19-10.82,1.38-16.08,11.29-20.27,20.21-6.12,13-7.8,28.47-8.29,42.64-.53,15.58.57,31.61,5.07,46.64a97.07,97.07,0,0,0,13.41,28.21c3,4.33,8,8.5,11.77,11.69,10.09,8.61,22,15.52,32.92,23l16.89,11.56c5.4,3.69,10.89,8.55,16.84,11.27,17.23,7.88,28.55-7.39,34.29-21.89,1.22-3.07,2.27-6.12,3.49-9.13q1.18-1.75,2.49-3.42a33.06,33.06,0,0,1,5.46-3.53,29.68,29.68,0,0,1,9.36,0c6.1,2.38,11.79,5.64,17.54,8.78q10.8,5.93,21.56,11.92,22,12.23,43.75,24.75c8.81,5.07,17.07-.24,22.45-7.33,7.92-10.43,11.53-28,12.51-40.52,1.33-17.09,1-35.29-4.23-51.74C2250.86,848,2246.45,834.37,2236,828.34Z"></path><path class="cls-1" d="M911,883.34q-21.78-12.52-43.74-24.75c-13.76-7.67-27.76-17.2-42.83-22-10.48-3.35-18.26-4.56-28.66-1.08-6.82,2.29-12.07,4.86-17.27,9.88A95,95,0,0,0,761,868c-1.09-.83-2.15-1.63-3.19-2.34l-17.69-12.11c-7.49-5.12-15.47-10-23-15.28a64.48,64.48,0,0,0-3.59-8.4c-3.94-7.49-10.83-20.51-21.25-19.19C681.45,812.07,676.19,822,672,830.9c-6.12,13-7.8,28.47-8.29,42.64-.53,15.58.57,31.61,5.07,46.64a97.07,97.07,0,0,0,13.41,28.21c3,4.33,8,8.5,11.77,11.69,10.09,8.61,22,15.52,32.92,23l16.89,11.56c5.4,3.69,10.89,8.55,16.84,11.27,17.23,7.88,28.55-7.39,34.29-21.89,1.22-3.07,2.27-6.12,3.49-9.13q1.18-1.75,2.49-3.42a33.06,33.06,0,0,1,5.46-3.53,29.68,29.68,0,0,1,9.36,0c6.1,2.38,11.79,5.64,17.54,8.78q10.8,5.93,21.56,11.92,22,12.23,43.75,24.75c8.81,5.07,17.07-.24,22.45-7.33,7.92-10.43,11.53-28,12.51-40.52,1.33-17.09,1-35.29-4.23-51.74C925.86,903,921.45,889.37,911,883.34Z"></path><path class="cls-1" d="M1812.79,171.49a515.84,515.84,0,0,1,80.65,59.24q7.83,7.34,15.39,15a15.06,15.06,0,0,0,11.11,7.72q5.93,2.85,11.67-1.49c9.34-5.56,14.78-21.88,16.79-31.34,3.58-16.85,4.57-34.87,1.69-51.89l-3.36-16a69.94,69.94,0,0,0-11.12-23.86c-33.11-33.56-69.85-63.31-110.39-87.41-8.73-5.19-17.16.36-22.46,7.33-7.92,10.44-11.53,28-12.5,40.52-1.33,17.09-1,35.29,4.23,51.75C1797.94,151.93,1802.34,165.27,1812.79,171.49Z"></path><path class="cls-1" d="M1166.51,532.88c1.45-26.37.36-53.69-8-79a178.66,178.66,0,0,0-40.22-68.95c-10.47-11.48-22.23-22.09-31.54-34.59-2.32-8.06-5.62-16-10.56-21.83-5.42-6.46-14.54-12.09-22.79-6.22-9.69,6.89-14.45,20.35-16.78,31.33-3.59,16.87-4.53,34.85-1.69,51.89,4.34,26,14,49.55,31.42,69.46,9.77,11.16,20.59,21.34,30.27,32.58,1.66,1.92,3.28,3.88,4.86,5.86-9.67,15.22-21.46,29.09-33.93,42.08-37.53,37.39-80.74,69-124.52,98.62q-26,17.57-52.63,34.18c-9.53,6-14.43,21.46-16.78,31.33A137.52,137.52,0,0,0,872,771.52c2.24,13.2,5.1,29.68,14.48,39.86,6.12,6.64,13.7,11.92,22.78,6.22,57-35.74,113.71-73.75,163.29-119.49,32-29.51,62.24-62.2,79.36-102.82A191.18,191.18,0,0,0,1166.51,532.88Z"></path><path class="cls-1" d="M822.44,658.66c18.76-14.82,36.78-32.09,50.27-51.93a183.45,183.45,0,0,0,30.5-86.55c2.26-24.74,0-49-5.53-73.12a129.1,129.1,0,0,0-14.16-36.28c-7-12-14.17-22.74-24.28-32.32-10.84-10.27-22.08-19.54-34.82-27.35-6-3.67-12.14-7-18.39-10.2-9.11-4.61-16.76-.17-22.45,7.34-7.92,10.43-11.53,28-12.51,40.52-1.33,17.09-1,35.28,4.23,51.74,3.3,10.42,7.77,25.13,18.31,30.47,14.63,7.42,28.72,16,41.21,26.66l.47.48a185.8,185.8,0,0,1-12.18,14.28c-31.24,30.29-70.05,52.72-110.45,69.69a364.28,364.28,0,0,0,3.24-56.71c-.68-34.73-6.28-70.38-18.06-103.13-7-19.54-14.72-38.38-25.2-56.35-11.78-20.18-24.52-39.37-39.43-57.38-5.88-7.11-14.07-11.41-22.79-6.22-9.33,5.55-14.77,21.87-16.78,31.33-3.59,16.85-4.58,34.88-1.69,51.89,2.31,13.63,5.43,28.93,14.48,39.86a369.49,369.49,0,0,1,28.45,39.14A276.49,276.49,0,0,1,651.1,498q2.6,7.91,4.63,16c.5,2.93.93,5.86,1.3,8.81q.12,3.06.15,6.12c-.24,3.09-.54,6.18-.91,9.25-1.2,6-2.64,12-4.28,17.88-3.46,10.15-7.47,20.1-11.78,29.93-3.52,8-7.4,16-10.19,24.29-5.95,17.79-9.14,35.44-8.6,54.35.46,16.45,3,34.26,10.19,49.26,3.2,6.66,7.92,14.5,14.58,18.48A24.17,24.17,0,0,0,660,735.53c4.91-.43,9.73-2.1,14.4-3.56C727.05,715.55,778.93,693.05,822.44,658.66Z"></path><path class="cls-1" d="M556.62,408.65c-7-36.41-17.67-71.54-33.16-105.29-5.8-12.66-12.18-25.08-19-37.25q14.25,3.28,28.57,6.23c60.35,12.37,121.81,19.94,183.43,21.4,51.24,1.2,103-1.59,153.31-11.75a436.65,436.65,0,0,0,66.52-19c16-6,31.71-13.37,45.89-23,13.74-9.38,26.82-21.38,36.16-35.2,14.38-21.26,21.84-46.68,24.08-72.09a208.17,208.17,0,0,0,.8-26.43c-.61-15.52-2.86-33.14-9.77-47.34-3.18-6.54-11.47-20.43-21.24-19.19C1001.72,41,995.4,50.89,991.89,59.91a112.92,112.92,0,0,0-7,30.72,89.54,89.54,0,0,1-6.45,8.08C959.51,116.24,935.25,127.56,911,136c-47.51,15.26-97.91,21.2-147.6,23-64.83,2.32-129.92-3-193.86-13.7a1137.56,1137.56,0,0,1-115.51-25.66,1152.79,1152.79,0,0,1-113-38.7q-6-4.05-11.73-.91a15,15,0,0,0-10.72,8.25c-7.92,10.43-11.53,28-12.51,40.52-1.33,17.09-1,35.28,4.23,51.74,3.35,10.58,7.79,24.86,18.31,30.47,13.82,7.38,26,19.47,37.4,30l-7.17-6.61a626.74,626.74,0,0,1,85,96.16q11.2,15.66,21.26,32.08a420.3,420.3,0,0,1,28,57.86q4.83,14.18,8.35,28.73,1.36,7.65,2.3,15.36.25,5.27.28,10.55-.4,5.49-1.07,10.94-1.54,7.77-3.64,15.42a235.31,235.31,0,0,1-11.8,28A289,289,0,0,1,445,586c-31,30.59-67.49,56.35-108.65,71.12-30.54,9.64-62.9,12.79-94.66,8.14a209,209,0,0,1-21.76-4.4c-32.77-9.88-62.69-27.46-88.26-50.12a283.12,283.12,0,0,1-43.44-53.59,302.29,302.29,0,0,1-18.52-38.68q-4.43-13.13-7.65-26.6-1.7-9.47-2.8-19-.42-8.11-.4-16.26.6-9.16,1.78-18.3,2.43-12.86,6-25.45A304.48,304.48,0,0,1,83.38,373a341.35,341.35,0,0,1,51.36-68.75,434.6,434.6,0,0,1,65.47-52.64c9.55-6.31,14.36-21.13,16.79-31.33a137.53,137.53,0,0,0,1.69-51.89c-2.24-13.21-5.11-29.68-14.48-39.86-6-6.52-13.85-12.13-22.79-6.22a460.23,460.23,0,0,0-83.88,71.52C74.63,218.56,56.62,246.13,41,275.93,26.54,303.67,16.18,334,9.65,364.58A424.1,424.1,0,0,0,.43,472.64c3,63.39,17.86,128.09,50.11,183.27,13.77,23.57,28.88,45.84,48,65.43,17.85,18.28,37.58,35,59.64,48,40.81,24,90,36.31,137.26,31.54,55.92-5.64,108.25-32.56,150.33-69C474.57,707,501.14,678.27,520,645c9.39-16.59,18-33.6,24-51.71a381.5,381.5,0,0,0,16-68.86,334.65,334.65,0,0,0,2.68-58.25A376.73,376.73,0,0,0,556.62,408.65Z"></path></g></g></svg>